# xmcd
#
# Track frame offsets: 
#        150
#        28238
#        55821
#        81117
#        114753
#        144304
#        169751
#        199825
#        243700
#        271627
#        297061
#        323739
#
# Disc length: 4685 seconds
#
# Revision: 3
# Processed by: cddbd v1.5.2PL0 Copyright (c) Steve Scherf et al.
# Submitted via: ExactAudioCopy v1.0b1
#
DISCID=a1124b0c
DTITLE=Various Artist - ATB - The DJ'6 InThe Mix [CD3] - ATB Classix Mix
DYEAR=2011
DGENRE=Trance
TTITLE0=ATB - Ecstasy [Special US Intro Mix]
TTITLE1=Max Graham feat. Ana Criado - Nothing Else Matters [Aly and Fila
TTITLE1=Remix]
TTITLE2=Oliver Smith - Cirrus
TTITLE3=Alex Bartlett feat. Anthya - Touch The Sun [Duende Dub Remix]
TTITLE4=Luminary - Amsterdam [Smith and Pledger Remix]
TTITLE5=Akesson - Perfect Blue
TTITLE6=Rusch and Murray - Epic [Above and Beyond Remix]
TTITLE7=Andain - Beautiful Things [Gabriel and Dresden Unplugged Mix]
TTITLE8=First State feat. Anita Kelsey - Falling
TTITLE9=Signalrunner and Julie Thompson - These Shoulders [Oliver Smith 
TTITLE9=Remix]
TTITLE10=Sundriver - Feel [Nitrous Oxide Remix]
TTITLE11=Above and Beyond vs. Andy Moor - Air For Live
EXTD=
EXTT0=
EXTT1=
EXTT2=
EXTT3=
EXTT4=
EXTT5=
EXTT6=
EXTT7=
EXTT8=
EXTT9=
EXTT10=
EXTT11=
PLAYORDER=
